<svg xmlns="http://www.w3.org/2000/svg" xmlns:xlink="http://www.w3.org/1999/xlink" width="553.844" height="449.247" viewBox="0 0 553.844 449.247">
    <defs>
        <filter id="Path_1" x="80.2" y="0" width="395.666" height="445.136" filterUnits="userSpaceOnUse">
            <feOffset dy="3" input="SourceAlpha"/>
            <feGaussianBlur stdDeviation="3" result="blur"/>
            <feFlood flood-opacity="0.161"/>
            <feComposite operator="in" in2="blur"/>
            <feComposite in="SourceGraphic"/>
        </filter>
        <radialGradient id="radial-gradient" cx="0.5" cy="0.5" r="0.5" gradientUnits="objectBoundingBox">
            <stop offset="0" stop-color="#fff" stop-opacity="0.102"/>
            <stop offset="1" stop-color="#fff" stop-opacity="0"/>
        </radialGradient>
    </defs>
    <g id="Group_22" data-name="Group 22" transform="translate(1303.344 350.747)">
        <g id="Group_21" data-name="Group 21">
            <g id="Group_20" data-name="Group 20">
                <g transform="matrix(1, 0, 0, 1, -1303.34, -350.75)" filter="url(#Path_1)">
                    <path id="Path_1-2" data-name="Path 1" d="M108.645,0H457.03a14.645,14.645,0,0,1,14.636,14.636v412.5H94V14.636A14.645,14.645,0,0,1,108.636,0h.008Z" transform="translate(-4.8 6)" fill="#0f1230"/>
                </g>
                <g id="Group_1" data-name="Group 1" transform="translate(-1210.832 -329.115)" opacity="0.4">
                    <path id="Path_2" data-name="Path 2" d="M117.58,14.585v-.032l-1.156-2.939a.283.283,0,0,0-.12-.136.344.344,0,0,0-.177-.048.3.3,0,0,0-.177.064.291.291,0,0,0-.1.153l-.771,2.328h-3.123l-.771-2.328a.327.327,0,0,0-.1-.153.281.281,0,0,0-.177-.064.324.324,0,0,0-.177.048.283.283,0,0,0-.12.136l-1.14,2.939v.032a2.048,2.048,0,0,0,.69,2.417h.008l1.742,1.293.859.642.522.393a.349.349,0,0,0,.426,0l.522-.393.859-.642,1.743-1.3a2.073,2.073,0,0,0,.707-2.417h.032Z" transform="translate(-97.019 -11.277)" fill="#fff"/>
                    <path id="Path_3" data-name="Path 3" d="M110.211,19.518a.455.455,0,0,1-.3-.1L106.842,17.1a2.271,2.271,0,0,1-.757-2.609l1.136-2.963a.479.479,0,0,1,.182-.217.518.518,0,0,1,.268-.072.452.452,0,0,1,.26.1.458.458,0,0,1,.15.233l.718,2.208h2.839l.726-2.216a.452.452,0,0,1,.15-.225.4.4,0,0,1,.26-.1.452.452,0,0,1,.268.072.486.486,0,0,1,.182.217l1.073,2.8.063.161a2.272,2.272,0,0,1-.742,2.6l-3.084,2.328a.522.522,0,0,1-.3.1l-.024-.008Zm-2.579-7.965a.134.134,0,0,0-.079.024.215.215,0,0,0-.055.064l-1.119,2.939a1.941,1.941,0,0,0,.631,2.256l3.084,2.328a.212.212,0,0,0,.237,0l3.084-2.32a1.936,1.936,0,0,0,.662-2.168l-1.159-3.027a.3.3,0,0,0-.055-.064.157.157,0,0,0-.086-.024.139.139,0,0,0-.079.032.125.125,0,0,0-.047.064l-.8,2.441h-3.289l-.8-2.433a.332.332,0,0,0-.047-.08.165.165,0,0,0-.079-.032h-.008Zm66.41.522H122.413a1.679,1.679,0,0,0-1.664,1.694v3.22a1.679,1.679,0,0,0,1.664,1.694H174.04a1.679,1.679,0,0,0,1.664-1.694v-3.22a1.679,1.679,0,0,0-1.664-1.694Zm265.206,0H426.736a.931.931,0,0,0-.923.939v4.729a.931.931,0,0,0,.923.939h12.507a.931.931,0,0,0,.923-.939V13.014a.932.932,0,0,0-.923-.939Zm-21.33,0h-5.167a.668.668,0,0,0-.662.674v5.259a.668.668,0,0,0,.662.674h5.167a.668.668,0,0,0,.662-.674V12.749a.68.68,0,0,0-.194-.477.656.656,0,0,0-.469-.2Zm33.193-.835a4.031,4.031,0,1,0,3.959,4.03A4.031,4.031,0,0,0,451.111,11.24Zm13.931,14.6H94v1.172H465.041Z" transform="translate(-94 -11.24)" fill="#fff"/>
                </g>
                <g id="Group_1482" data-name="Group 1482" transform="translate(-621.839 2658.308)">
                    <g id="Group_1481" data-name="Group 1481">
                        <path id="Path_4" data-name="Path 4" d="M69,374.939H528.247" transform="translate(-702.022 -3035.075)" fill="none" stroke="#000" stroke-miterlimit="10" stroke-width="0.631"/>
                        <path id="Path_5" data-name="Path 5" d="M69,374.939H528.247" transform="translate(-702.022 -3035.075)" fill="none" stroke="#a888f4" stroke-miterlimit="10" stroke-width="1.305"/>
                        <g id="Group_2" data-name="Group 2" transform="translate(-633.022 -2705.537)" opacity="0.1">
                            <path id="Path_7" data-name="Path 7" d="M69,318.392H528.1M69,333.538H528.1M69,348.693H528.1M69,378.995H528.1M69,394.141H528.1" transform="translate(-69 -318.392)" fill="none" stroke="#000" stroke-miterlimit="10" stroke-width="0.326"/>
                        </g>
                        <path id="Path_8" data-name="Path 8" d="M522.763,385.967,512.373,343.7l-4.716,3.294-4.589-5.1L492.217,384.8l-5.231-3.977-5.683-.974-4.463-30.168-5.077,22.779-5.24-26.318-4.336,6.216-4.978,24.1-6.271,12.086-5.014-34.472-5.574,1.3-4.156-8.572-4.707,9.246-5.628,26.164-4.788.218-5.367,5.615h-6.261l-5.114-9.228-4.752-5.9-4.517,6.061-7.915,3.668h-8.682l-6.1-17.427-4.563-6.48-4.345-12.568-5.222,12.786-4.653.409-5.151,24.09-6.08.255-5.43-28.394-4.58-4.768-4.779,3.467-4.8-2.111-5.33,7.3-4.93,29.6-6.686-6.735-4.246-30.141-5.393,10.62L290.9,342.1l-4.78,12.3-5.086-4.478L276.2,382.746l-6.307,1.265-5.231-26.355-4.9-3.84L255.57,351.7l-5.746,6.644-4.9-6.07-4.951,30.732-6.3,3.558-4.906-27.984-5.077,4.332-5.421-10.038-5-1.411-4.318-3.476-4.816,31.487-6.288,3.741-5.285-4.9-.045-.228-9.676-54.266-4.78,40.088-4.978-16.1-4.752,34.874-6.469,6.024-5.565-30.2-4.7-9.519-4.906,9.764L141.162,348.6l-4.544,4.814-4.174,29.622H125.7L120.189,348.4l-4.327,1.766-10.39,17.973-4.906-4.177L95.345,387h-6.4l-5.321-20.786-4.508-9.291H74.683L69,362.378v33.044H528.247v-9.456Z" transform="translate(-714.366 -3021.38)" fill="#7759c2" opacity="0.17"/>
                        <path id="Path_9" data-name="Path 9" d="M69,360.611l5.4-5.167h5.147l4.732,9.726,5.2,20.287h5.292l5.355-23.548,5.147,4.368,10.087-17.418,5.346-2.189,5.563,34.845h5.553l4.118-29.178,5.355-5.667,5.346,9.808,4.94-9.808,5.355,10.843,5.346,28.979,5.355-4.977,5.147-37.669,4.94,15.938,4.939-41.392,10.494,58.747,4.732,4.376,5.562-3.3,4.94-32.293,5.147,4.141,5.138,1.453,5.147,9.517,5.355-4.55,4.94,28.143,5.147-2.9,5.147-31.876,5.346,6.629,5.562-6.421,4.732,2.38,5.147,4.041,5.138,25.873,5.147-1.035,4.94-33.538,5.3,4.659,5.2-13.35,5.346,20.7,5.563-10.925,4.524,32.039,5.553,5.594,4.741-28.361,5.761-7.865,4.94,2.171,4.939-3.578,5.147,5.34,5.346,27.943,4.939-.209,5.148-24.012,4.731-.409,5.761-14.076,4.949,14.276,4.524,6.376L378.8,381.11h8.028l7.613-3.523,4.939-6.621,5.355,6.621,4.94,8.909h5.553l5.367-5.6,4.524-.209,5.536-25.664,5.373-10.552,4.533,9.309,5.761-1.344,4.813,33.019,5.274-10.144,4.94-24.011,5.346-7.655,4.922,24.628,5.166-23.185,4.939,33.328,5.355.908,4.524,3.433,10.909-43.054,5.048,5.594,5.039-3.524,10.5,42.645h5.147" transform="translate(-714.366 -3020.947)" fill="none" stroke="#7759c2" stroke-miterlimit="10" stroke-width="1.631" opacity="0.2"/>
                    </g>
                </g>
                <path id="Path_27" data-name="Path 27" d="M48.559,479.149H11M202.92,456.5H145a6.027,6.027,0,0,0-6.03,6.03v10.59a6.027,6.027,0,0,1-6.03,6.03H98.329M330.474,456.5h58.3a6.027,6.027,0,0,1,6.03,6.03v10.59a6.027,6.027,0,0,0,6.03,6.03h34.387m48.968,0h36.635" transform="translate(-1303.496 -388.215)" fill="none" stroke="#7759c2" stroke-linecap="round" stroke-linejoin="round" stroke-width="0.92" opacity="0.2"/>
                <path id="Path_28" data-name="Path 28" d="M451.69,489.751h34.9a7.065,7.065,0,0,0,0-14.131h-34.9a7.066,7.066,0,1,0,0,14.131Zm-386.1.233h35.247a7.065,7.065,0,1,0,0-14.131H65.585a7.066,7.066,0,1,0,0,14.132Z" transform="translate(-1312.863 -391.984)" fill="#fff" opacity="0.6"/>
                <path id="Path_29" data-name="Path 29" d="M65.585,490.041h35.247a7.065,7.065,0,1,0,0-14.131H65.585a7.066,7.066,0,1,0,0,14.132Z" transform="translate(-1312.863 -392.042)" fill="none" stroke="#fff" stroke-miterlimit="10" stroke-width="1"/>
                <path id="Path_30" data-name="Path 30" d="M487.246,482.851H461.554v1.606h25.692Zm-33.785,4.006a3.468,3.468,0,1,0-3.468-3.468,3.468,3.468,0,0,0,3.468,3.468Zm-352.817-4.006H74.951v1.606h25.692Zm-33.785,4.006a3.468,3.468,0,1,0-3.468-3.468,3.468,3.468,0,0,0,3.468,3.468Z" transform="translate(-1313.823 -392.832)" fill="#171321" opacity="0.1"/>
                <path id="Path_31" data-name="Path 31" d="M546.485,489.751h34.9a7.065,7.065,0,0,0,0-14.131h-34.9a7.066,7.066,0,1,0,0,14.131Z" transform="translate(-1407.659 -391.984)" fill="none" stroke="#fff" stroke-miterlimit="10" stroke-width="1"/>
                <path id="Path_32" data-name="Path 32" d="M266.03,469.54h94.395a17.27,17.27,0,0,0,0-34.54H266.03a17.27,17.27,0,1,0,0,34.54Z" transform="translate(-1350.363 -383.977)" fill="#8244ff"/>
                <path id="Path_33" data-name="Path 33" d="M384.14,463.161a9.61,9.61,0,1,0-9.61-9.61,9.61,9.61,0,0,0,9.61,9.61Z" transform="translate(-1375.155 -385.74)" fill="#d3d3d3" stroke="#fff" stroke-width="0.75"/>
                <path id="Path_34" data-name="Path 34" d="M380.61,453.862s.674-3.035,4.552-3.2,4.311,3.075,4.311,3.075l-2.023-.281" transform="translate(-1376.355 -387.063)" fill="#d3d3d3"/>
                <path id="Path_35" data-name="Path 35" d="M380.61,453.862s.674-3.035,4.552-3.2,4.311,3.075,4.311,3.075m0,0,.578-2.489m-.578,2.489-2.023-.281" transform="translate(-1376.355 -387.063)" fill="none" stroke="#fff" stroke-width="0.75"/>
                <path id="Path_36" data-name="Path 36" d="M389.438,457.974s-.674,3.035-4.552,3.2a4.058,4.058,0,0,1-4.416-3.308l2.152.819" transform="translate(-1376.326 -388.485)" fill="#d3d3d3"/>
                <path id="Path_37" data-name="Path 37" d="M389.414,457.974s-.674,3.035-4.552,3.2a4.058,4.058,0,0,1-4.416-3.308m0,0-.1,2.754m.1-2.754,2.152.819" transform="translate(-1376.303 -388.485)" fill="none" stroke="#fff" stroke-width="0.75"/>
                <path id="Path_39" data-name="Path 39" d="M274.26,454.47a6.72,6.72,0,1,1-6.72-6.72,6.72,6.72,0,0,1,6.72,6.72Zm1.55,0a8.27,8.27,0,1,1-8.27-8.27,8.27,8.27,0,0,1,8.27,8.27Zm-4.368-1.782a.778.778,0,1,0-1.1-1.1l-4.1,4.1-1.261-1.26a.778.778,0,1,0-1.1,1.1l1.806,1.806a.775.775,0,0,0,1.092,0l4.657-4.657Z" transform="translate(-1352.435 -386.185)" fill="#fff" fill-rule="evenodd"/>
                <path id="Path_10" data-name="Path 10" d="M618.857,65H320.594A5.594,5.594,0,0,0,315,70.594V201.669a5.594,5.594,0,0,0,5.594,5.594H618.857a5.594,5.594,0,0,0,5.594-5.594V70.594A5.594,5.594,0,0,0,618.857,65Z" transform="translate(-1374.794 -332.475)" fill="#ff57c3" opacity="0.12"/>
                <path id="Path_11" data-name="Path 11" d="M619.2,65H320.594A5.594,5.594,0,0,0,315,70.594V201.669a5.594,5.594,0,0,0,5.594,5.594H619.2a5.594,5.594,0,0,0,5.594-5.594V70.594A5.594,5.594,0,0,0,619.2,65Z" transform="translate(-1374.794 -332.475)" fill="none" stroke="#986eef" stroke-miterlimit="10" stroke-width="1"/>
                <text id="ল্যাংগুয়েজ" transform="translate(-1031.352 -241.863)" fill="#ddd" font-size="8" font-family="HindSiliguri-Bold, Hind Siliguri" font-weight="700"><tspan x="0" y="0">ল্যাংগুয়েজ</tspan></text>
                <text id="প্রফেশনাল" transform="translate(-930.069 -243.275)" fill="#ddd" font-size="8" font-family="HindSiliguri-Bold, Hind Siliguri" font-weight="700"><tspan x="0" y="0">প্রফেশনাল</tspan></text>
                <text id="গত_১_বছর" data-name="গত ১ বছর" transform="translate(-839.103 -243.275)" fill="#ddd" font-size="8" font-family="HindSiliguri-Bold, Hind Siliguri" font-weight="700"><tspan x="0" y="0">গত ১ বছর</tspan></text>
                <path id="Path_15" data-name="Path 15" d="M627.306,108.1l-13.465,6.66-13.474-4.96-11.607,5.343L572.6,117.78l-13.142-7.744" transform="translate(-1427.346 -334.056)" fill="none" stroke="#7759c2" stroke-miterlimit="10" stroke-width="1.5"/>
                <path id="Path_26" data-name="Path 26" d="M559.442,135.9h13.682l13.049,8.169L599.85,135.9h13.978l13.465,8.169m-67.846,21.925,13.262-3.553,27.345,7.211,27.239-5.2m-68.378,25.319,15.749-.755,10.877-1.5,15.024,1.617,13-6.234,13.726,2.256" transform="translate(-1425.396 -334.492)" fill="none" stroke="#7759c2" stroke-miterlimit="10" stroke-width="1.5"/>
                <text id="জাভাস্ক্রিপ্ট" transform="translate(-1031.352 -217.956)" fill="#ddd" font-size="8" font-family="HindSiliguri-Medium, Hind Siliguri" font-weight="500"><tspan x="0" y="0">জাভাস্ক্রিপ্ট</tspan></text>
                <text id="_৬৭.৯_" data-name="৬৭.৯% " transform="translate(-930.069 -217.956)" fill="#ddd" font-size="8" font-family="HindSiliguri-Bold, Hind Siliguri" font-weight="700"><tspan x="0" y="0">৬৭.৯%</tspan></text>
                <text id="পিএইচপি" transform="translate(-1031.352 -193.637)" fill="#ddd" font-size="8" font-family="HindSiliguri-Medium, Hind Siliguri" font-weight="500"><tspan x="0" y="0">পিএইচপি</tspan></text>
                <text id="_২১.৪২_" data-name="২১.৪২% " transform="translate(-930.069 -192.637)" fill="#ddd" font-size="8" font-family="HindSiliguri-Bold, Hind Siliguri" font-weight="700"><tspan x="0" y="0">২১.৪২%</tspan></text>
                <text id="ডার্ট" transform="translate(-1031.352 -144.411)" fill="#ddd" font-size="8" font-family="HindSiliguri-Medium, Hind Siliguri" font-weight="500"><tspan x="0" y="0">ডার্ট</tspan></text>
                <text id="_৬.৬৭_" data-name="৬.৬৭% " transform="translate(-930.069 -144.411)" fill="#ddd" font-size="8" font-family="HindSiliguri-Bold, Hind Siliguri" font-weight="700"><tspan x="0" y="0">৬.৬৭%</tspan></text>
                <text id="সি_" data-name="সি#" transform="translate(-1031.352 -169.73)" fill="#ddd" font-size="8" font-family="HindSiliguri-Medium, Hind Siliguri" font-weight="500"><tspan x="0" y="0">সি#</tspan></text>
                <text id="_২৯.৭২_" data-name="২৯.৭২%" transform="translate(-930.069 -169.73)" fill="#ddd" font-size="8" font-family="HindSiliguri-Bold, Hind Siliguri" font-weight="700"><tspan x="0" y="0">২৯.৭২%</tspan></text>
                <path id="Path_41" data-name="Path 41" d="M239.031,65H17.752C14.023,65,11,68.978,11,73.884V254.275c0,4.907,3.023,8.885,6.752,8.885H239.031c3.73,0,6.752-3.977,6.752-8.885V73.884C245.783,68.978,242.761,65,239.031,65Z" transform="translate(-1314.094 -332.475)" fill="#8244ff" opacity="0.17"/>
                <path id="Path_460" data-name="Path 460" d="M192.736,221.838c-1.257-1.262-1.572-2.506-1.572-4.715V191.974l-.314-.314v25.462c0,2.209,0,2.822,1.886,4.715l.943.943h0Z" transform="translate(-1321.828 -379.417)" fill="#fff" opacity="0.2"/>
                <path id="Path_462" data-name="Path 462" d="M220.389,193.232c-1.558-1.558-2.836-1.572-4.715-1.572H190.84l.314.314h24.519c.94,0,3.306-.157,4.715,1.257Z" transform="translate(-1321.819 -379.417)" fill="#fff" opacity="0.2"/>
                <g id="Group_1483" data-name="Group 1483" transform="translate(-621.839 2658.308)">
                    <path id="Path_464" data-name="Path 464" d="M3.234,39.525,0,0,38.624.079,35.2,39.525l-15.742,4.56Z" transform="translate(-429.176 -2765.338)" fill="#e9ca32"/>
                    <path id="Path_465" data-name="Path 465" d="M62.468,48.588v-36.5l15.905.053L75.537,44.8Z" transform="translate(-472.186 -2773.659)" fill="#ffde25"/>
                    <path id="Path_451" data-name="Path 451" d="M31.869,26h-4.2V50.3L24.4,49.677V46.4l-3.9-.621V53.1l11.369,2.959Zm3.154,0H46.664l-.779,4.657H39.467V38.3h6.418l-.779,15.424L35.023,56.058V51.23l6.813-2.336.393-6.385-7.206,1.043Z" transform="translate(-443.29 -2783.239)" fill="#fff"/>
                    <path id="Path_466" data-name="Path 466" d="M18.186,10h5.271l-1.49,7.919H26.7q3.9.083,5.805,1.741,1.948,1.658,1.146,6.3L31.1,39.769H25.748l2.444-13.185a4.025,4.025,0,0,0-.229-2.944q-.611-.871-2.635-.871l-4.24-.041-3.132,17.04h-5.27Z" transform="translate(-363.578 -2778.099)" fill="#8892bf"/>
                    <path id="Path_467" data-name="Path 467" d="M10.462,12.524H20.7q4.506.041,6.531,2.819t1.337,7.587a15.491,15.491,0,0,1-1.184,4.312,12.89,12.89,0,0,1-2.444,3.814,8.45,8.45,0,0,1-4.087,2.737,17.412,17.412,0,0,1-4.507.58H11.76l-1.451,7.878H5Zm2.177,17.165,2.284-12.4H15.7q.421,0,.878-.041a15.854,15.854,0,0,1,5.08.622q2.062.663,1.375,5.017-.84,5.183-3.285,6.053a18.587,18.587,0,0,1-6.111.788H13.1a2.6,2.6,0,0,1-.461-.039Z" transform="translate(-380.005 -2772.704)" fill="#8892bf" fill-rule="evenodd"/>
                    <path id="Path_468" data-name="Path 468" d="M35.13,12.524H24.9L19.433,42.252h5.309l1.452-7.878h4.583a17.411,17.411,0,0,0,4.507-.58,8.449,8.449,0,0,0,4.087-2.737,12.89,12.89,0,0,0,2.444-3.814A15.491,15.491,0,0,0,43,22.931q.688-4.81-1.337-7.587T35.13,12.524Zm-5.775,4.768-2.284,12.4a2.6,2.6,0,0,0,.458.041h.535a18.588,18.588,0,0,0,6.111-.788q2.444-.871,3.285-6.053.688-4.353-1.375-5.017a15.853,15.853,0,0,0-5.08-.622q-.458.041-.878.041Z" transform="translate(-349.158 -2772.704)" fill="#8892bf" fill-rule="evenodd"/>
                    <path id="Path_469" data-name="Path 469" d="M19.825,221.523l-8.173-8.173a5.554,5.554,0,0,1-1.572-3.772,6.363,6.363,0,0,1,.628-2.2l7.544-15.717Z" transform="translate(-297.258 -2956.339)" fill="#01579b"/>
                    <path id="Path_471" data-name="Path 471" d="M220.389,20.645l-8.173-8.173a5.639,5.639,0,0,0-3.458-1.572,5.8,5.8,0,0,0-2.829.628L190.84,19.073Z" transform="translate(-469.845 -2783.751)" fill="#40c4ff"/>
                    <path id="Path_476" data-name="Path 476" d="M261.9,788.863h19.8v-8.487l-14.774-4.715-13.517,4.715Z" transform="translate(-529.586 -3513.933)" fill="#40c4ff"/>
                    <path id="Path_472" data-name="Path 472" d="M190.84,217.122c0,2.522.316,3.14,1.572,4.4l1.257,1.257h28.292l-13.832-15.717-17.289-15.4Z" transform="translate(-469.845 -2956.339)" fill="#29b6f6"/>
                    <path id="Path_473" data-name="Path 473" d="M215.988,191.66H190.84l31.121,31.121h8.487v-19.49l-10.059-10.059a5.31,5.31,0,0,0-4.4-1.572Z" transform="translate(-469.845 -2956.339)" fill="#01579b"/>
                    <path id="Path_474" data-name="Path 474" d="M192.736,221.838c-1.257-1.262-1.572-2.506-1.572-4.715V191.974l-.314-.314v25.462c0,2.209,0,2.822,1.886,4.715l.943.943h0Z" transform="translate(-469.854 -2956.339)" fill="#fff" opacity="0.2"/>
                    <path id="Path_475" data-name="Path 475" d="M220.389,193.232c-1.558-1.558-2.836-1.572-4.715-1.572H190.84l.314.314h24.519c.94,0,3.306-.157,4.715,1.257Z" transform="translate(-469.845 -2956.339)" fill="#fff" opacity="0.2"/>
                    <path id="Path_470" data-name="Path 470" d="M57.547,30.39,47.8,20.645l-8.173-8.173A5.639,5.639,0,0,0,36.171,10.9a5.8,5.8,0,0,0-2.829.628L18.253,19.073,10.708,34.79a6.36,6.36,0,0,0-.628,2.2,5.555,5.555,0,0,0,1.572,3.772l7.532,7.478c.18.22.392.445.641.7l.314.314.943.943,8.173,8.173.314.314h19.8v-8.49H57.86V30.7Z" transform="translate(-297.258 -2783.751)" opacity="0.2" fill="url(#radial-gradient)"/>
                </g>
                <path id="Path_11-2" data-name="Path 11" d="M545.543,65H319.24c-2.34,0-4.24,3.489-4.24,7.792V255.368c0,4.3,1.9,7.792,4.24,7.792h226.3c2.342,0,4.24-3.489,4.24-7.792V72.792C549.783,68.489,547.885,65,545.543,65Z" transform="translate(-1618.094 -332.475)" fill="none" stroke="#8244ff" stroke-miterlimit="10" stroke-width="0.5"/>
                <rect id="Rectangle_1889" data-name="Rectangle 1889" width="95" height="84" rx="5" transform="translate(-1286.839 -214.692)" fill="#0f1230"/>
                <rect id="Rectangle_1890" data-name="Rectangle 1890" width="95" height="84" rx="5" transform="translate(-1178.839 -214.692)" fill="#0f1230"/>
                <text id="Language" transform="translate(-1270.147 -155.21)" fill="#b8b8b8" font-size="8" font-family="HindSiliguri-SemiBold, Hind Siliguri" font-weight="600"><tspan x="0" y="0">জাভাস্ক্রিপ্ট শিখছেন</tspan></text>
                <text id="JavaScript" transform="translate(-1270.147 -169.73)" fill="#fff" font-size="18" font-family="HindSiliguri-Bold, Hind Siliguri" font-weight="700"><tspan x="0" y="0">৫৯.৭৯%</tspan></text>
                <text id="Professionals" transform="translate(-1158.564 -155.21)" fill="#cacaca" font-size="8" font-family="HindSiliguri-SemiBold, Hind Siliguri" font-weight="600"><tspan x="0" y="0">পিএইচপি শিখছেন</tspan></text>
                <text id="JavaScript-2" data-name="JavaScript" transform="translate(-1169.064 -170.73)" fill="#fff" font-size="19" font-family="HindSiliguri-Bold, Hind Siliguri" font-weight="700"><tspan x="0" y="0">১৮.৮২%</tspan></text>
                <text id="JavaScript-3" data-name="JavaScript" transform="translate(-1071.839 73.308)" fill="#fff" font-size="11" font-family="HindSiliguri-SemiBold, Hind Siliguri" font-weight="600"><tspan x="0" y="0">ক্যাপ্টেন বাইনারি</tspan></text>
            </g>
        </g>
    </g>
</svg>
